<?xml version="1.0" encoding="utf-8"?>
<!-- Generator: Adobe Illustrator 24.0.2, SVG Export Plug-In . SVG Version: 6.00 Build 0)  -->
<svg version="1.1" id="Layer_1" xmlns="http://www.w3.org/2000/svg" xmlns:xlink="http://www.w3.org/1999/xlink" x="0px" y="0px"
	 viewBox="0 0 20 18" style="enable-background:new 0 0 20 18;" xml:space="preserve">
<style type="text/css">
	.st0{fill:#FFFFFF;}
</style>
<g id="Rounded" transform="translate(-680.000000, -3169.000000)">
	<g id="Maps" transform="translate(100.000000, 3068.000000)">
		<g id="_x2D_Round-_x2F_-Maps-_x2F_-restaurant_x5F_menu" transform="translate(578.000000, 98.000000)">
			<g transform="translate(0.000000, 0.000000)">
				<path class="st0" d="M4.7,4.3C4.6,4.2,4.4,4.1,4.1,4.1C4,4.1,3.8,4.1,3.6,4.2c0,0-0.1,0-0.1,0C3.4,4.4,3.2,4.6,3.1,4.7
					C2.4,6.2,2.7,8,3.9,9.2l4.2,4.2l2.8-2.8L4.7,4.3z"/>
				<path class="st0" d="M21,4c-3.2-3.1-9.4,2.3-7.5,6.1l-9.1,9.1c-0.4,0.4-0.4,1,0,1.4c0.4,0.4,1,0.4,1.4,0l6.2-6.2l6.2,6.2
					c0.4,0.4,1,0.4,1.4,0c0.4-0.4,0.4-1,0-1.4L13.4,13l1.5-1.5C18.7,13.4,24.1,7.2,21,4z"/>
			</g>
		</g>
	</g>
</g>
</svg>
